<svg xmlns="http://www.w3.org/2000/svg" width="17.651" height="16.845" viewBox="0 0 17.651 16.845">
    <path fill="#4575f5" d="M52.918 165.361l4.545 2.39a.587.587 0 0 0 .852-.619l-.868-5.061a.587.587 0 0 1 .169-.519l3.677-3.584a.587.587 0 0 0-.325-1l-5.082-.738a.587.587 0 0 1-.442-.321l-2.272-4.6a.587.587 0 0 0-1.052 0l-2.272 4.6a.587.587 0 0 1-.442.321l-5.082.738a.587.587 0 0 0-.325 1l3.677 3.584a.587.587 0 0 1 .169.519l-.868 5.061a.587.587 0 0 0 .852.619l4.545-2.39a.587.587 0 0 1 .544 0z" transform="translate(-43.819 -150.975)"/>
</svg>
